<svg xmlns="http://www.w3.org/2000/svg" width="800" height="800"><path fill="none" stroke="#39ff14" stroke-width="10" d="m666.522 236.937 30.58 8.886-28.516 8.372 19.51 8.17-20.54 3.841z" style="stroke-linecap:butt;stroke-linejoin:miter;fill:none;stroke:#39ff14;stroke-width:10;stroke-opacity:1" transform="matrix(1.8 0 0 1.8 -473.096 -116.187)"/><path fill="none" stroke="#39ff14" stroke-width="10" d="M379.684 179.982c-4.11 52.21 58.438 135.916 120.25 142.563 24.153 2.597 59.602-20.221 57.756-44.443-5.147-67.557-109.426-70.952-178.006-98.12z" style="stroke-miterlimit:4;stroke-dasharray:none;fill:none;stroke:#39ff14;stroke-width:10;stroke-opacity:1" transform="matrix(1.8 0 0 1.8 -473.096 -116.187)"/><path fill="none" stroke="#39ff14" stroke-width="10" d="M269.86 373.205c67.68 75.437 189.566 109.435 278.212 72.925C622.026 415.67 669.977 317.407 670 239.475c.016-53.373-53.437-114.076-132.566-89.051-35.545 11.24-62.664 46.947-85.572 79.38-51.182 68.124-96.568 113.89-182.003 143.401z" style="fill:none;stroke:#39ff14;stroke-width:10;stroke-opacity:1" transform="matrix(1.8 0 0 1.8 -473.096 -116.187)"/><path fill="none" stroke="#39ff14" stroke-width="10" d="M320.772 220.775c4.306 52.193 79.453 124.801 141.532 121.462 24.257-1.305 55.593-29.507 49.892-53.12-15.901-65.86-119.378-52.51-191.424-68.342z" style="stroke-miterlimit:4;stroke-dasharray:none;fill:none;stroke:#39ff14;stroke-width:10;stroke-opacity:1" transform="matrix(1.8 0 0 1.8 -473.096 -116.187)"/><path fill="none" stroke="#39ff14" stroke-width="10" d="M492.389 179.68c21.514 1.922 59.504 8.733 89.482 10.59 24.605 1.526 53.677.866 73.954.441 14.687 25.172 15.875 52.01 11.73 75.495-43.238 7.24-75.433 1.902-110.711-9.372-32.095-10.257-63.928-25.71-87-51.465 10.289-14.637 13.79-17.799 22.545-25.69z" style="fill:none;stroke:#39ff14;stroke-width:10;stroke-opacity:1" transform="matrix(1.8 0 0 1.8 -473.096 -116.187)"/><g fill="none" stroke="#39ff14" stroke-width="10"><path d="M637.548 191.697c0 6.23-5.27 11.28-11.77 11.28s-11.77-5.05-11.77-11.28 5.27-11.28 11.77-11.28 11.77 5.05 11.77 11.28z" style="fill-rule:nonzero;fill:none;stroke:#39ff14;stroke-width:10;stroke-opacity:1" transform="matrix(3.89608 1.64235 -1.22891 3.2238 -1547.631 -1347.151)"/><path d="M626.759 234.364c0 5.417-4.611 9.808-10.3 9.808-5.687 0-10.298-4.39-10.298-9.808 0-5.417 4.61-9.808 10.299-9.808s10.299 4.391 10.299 9.808z" style="fill-rule:nonzero;fill:none;stroke:#39ff14;stroke-width:10;stroke-opacity:1" transform="matrix(3.11686 1.31388 -1.0666 2.79801 -1005.446 -1163.745)"/><path d="M624.205 230.612a3.468 3.468 0 1 1-6.936 0 3.468 3.468 0 0 1 6.936 0z" style="fill-rule:nonzero;fill:none;stroke:#39ff14;stroke-width:10;stroke-opacity:1" transform="matrix(3.11686 1.31388 -1.0666 2.79801 -1008.633 -1169.345)"/></g><path fill="none" stroke="#39ff14" stroke-width="10" d="M650.577 225.208c-5.41-3.373-9.895-8.002-15.28-11.417-5.185-3.498-10.533-6.872-16.347-9.22-2.549-.881-5.099-1.758-7.636-2.673-1.734.414.33-1.137.691-1.71l5.267-5.878c2.277.3 4.29 1.555 6.507 2.087 6.004 2.459 11.429 6.091 16.854 9.598 5.33 3.597 10.303 7.72 15.677 11.24 1.59.298 1.505 1.405.28 2.076q-3.008 2.948-6.013 5.897zM496.848 208.518c-10.37-.361-22.442.928-30.39-8.662-6.997-7.667-12.691-17.21-16.363-27.613-.637-7.556-.644-16.787-7.545-20.377-7.965-5.055-17.376-4.327-26.085-5.727-16.434-1.093-32.093 5.76-47.412 11.821-7.272 2.855-16.213 2.33-21.545-4.954-4.153-4.765-6.677-10.935-9.3-16.842-3.84-3.823-4.07-9.763 1.114-11.348l9.574-6.492c4.903 10.612 8.633 24.247 18.973 28.975 10.615 2.688 20.46-4.527 30.466-7.45 14.186-5.397 29.346-6.21 43.997-3.347 8.436.886 18.645 4.545 21.196 15.42.746 9.43 2.446 18.616 8.085 25.698 5.335 9.583 13.16 18.718 23.431 19.112 3.4 1.333 14.527-1.391 13.302 1.878z" style="fill-rule:nonzero;fill:none;stroke:#39ff14;stroke-width:10;stroke-opacity:1" transform="matrix(1.8 0 0 1.8 -473.096 -116.187)"/><path fill="none" stroke="#39ff14" stroke-width="10" d="M489.9 203.543c-7.52-4.904-16.718-9.23-19.916-18.256-2.119-6.045-4.295-12.156-5.355-18.48-.93-8.593.026-17.254-.403-25.867 1.386-5.496-2.179-10.552-7.683-11.567-7.216-2.103-14.848-1.827-22.245-2.845-6.8-.371-14.916 1.108-20.31-4.006-4.09-4.879-5.867-11.193-7.894-17.103-.465-3.088 3.635-3.211 5.417-5.037l9.756-6.19c.706 5.752 3.228 11.12 5.482 16.392 3.111 5.539 9.926 5.803 15.547 5.664 8.815.56 17.769.734 26.401 2.693 5.441 1.271 11.854 5.123 11.282 11.458.367 13.125-1.807 26.735 2.705 39.39 1.865 5.662 3.695 11.773 8.702 15.531 3.754 3.481 8.476 5.768 12.66 8.545-3.429 2.999-7.803 5.258-11.593 7.987q-1.276.846-2.553 1.69z" style="fill-rule:nonzero;fill:none;stroke:#39ff14;stroke-width:10;stroke-opacity:1" transform="matrix(1.8 0 0 1.8 -473.096 -116.187)"/></svg>